<svg width="16" height="16" viewBox="0 0 16 16" fill="none" xmlns="http://www.w3.org/2000/svg">
<path d="M10.478 1.647C10.4973 1.58423 10.504 1.51827 10.4979 1.45289C10.4917 1.38751 10.4727 1.32398 10.4419 1.26595C10.4112 1.20791 10.3693 1.1565 10.3187 1.11464C10.2681 1.07278 10.2098 1.0413 10.147 1.022C10.0842 1.0027 10.0183 0.995944 9.95288 1.00213C9.8875 1.00832 9.82398 1.02732 9.76594 1.05806C9.7079 1.08879 9.65649 1.13066 9.61463 1.18127C9.57278 1.23187 9.5413 1.29023 9.52199 1.353L5.52199 14.353C5.48301 14.4798 5.49598 14.6168 5.55805 14.7341C5.62013 14.8513 5.72622 14.939 5.85299 14.978C5.97977 15.017 6.11684 15.004 6.23405 14.9419C6.35126 14.8799 6.43901 14.7738 6.47799 14.647L10.478 1.647V1.647ZM4.85399 4.146C4.90056 4.19245 4.9375 4.24762 4.96271 4.30837C4.98791 4.36911 5.00089 4.43423 5.00089 4.5C5.00089 4.56577 4.98791 4.63089 4.96271 4.69163C4.9375 4.75238 4.90056 4.80755 4.85399 4.854L1.70699 8L4.85399 11.146C4.94788 11.2399 5.00063 11.3672 5.00063 11.5C5.00063 11.6328 4.94788 11.7601 4.85399 11.854C4.76011 11.9479 4.63277 12.0006 4.49999 12.0006C4.36722 12.0006 4.23988 11.9479 4.14599 11.854L0.645994 8.354C0.59943 8.30755 0.562487 8.25238 0.537281 8.19163C0.512075 8.13089 0.4991 8.06577 0.4991 8C0.4991 7.93423 0.512075 7.86911 0.537281 7.80837C0.562487 7.74762 0.59943 7.69245 0.645994 7.646L4.14599 4.146C4.19244 4.09944 4.24761 4.06249 4.30836 4.03729C4.36911 4.01208 4.43423 3.99911 4.49999 3.99911C4.56576 3.99911 4.63088 4.01208 4.69163 4.03729C4.75237 4.06249 4.80755 4.09944 4.85399 4.146V4.146ZM11.146 4.146C11.0994 4.19245 11.0625 4.24762 11.0373 4.30837C11.0121 4.36911 10.9991 4.43423 10.9991 4.5C10.9991 4.56577 11.0121 4.63089 11.0373 4.69163C11.0625 4.75238 11.0994 4.80755 11.146 4.854L14.293 8L11.146 11.146C11.0995 11.1925 11.0626 11.2477 11.0375 11.3084C11.0123 11.3692 10.9994 11.4343 10.9994 11.5C10.9994 11.5657 11.0123 11.6308 11.0375 11.6916C11.0626 11.7523 11.0995 11.8075 11.146 11.854C11.1925 11.9005 11.2477 11.9374 11.3084 11.9625C11.3691 11.9877 11.4342 12.0006 11.5 12.0006C11.5657 12.0006 11.6308 11.9877 11.6916 11.9625C11.7523 11.9374 11.8075 11.9005 11.854 11.854L15.354 8.354C15.4006 8.30755 15.4375 8.25238 15.4627 8.19163C15.4879 8.13089 15.5009 8.06577 15.5009 8C15.5009 7.93423 15.4879 7.86911 15.4627 7.80837C15.4375 7.74762 15.4006 7.69245 15.354 7.646L11.854 4.146C11.8075 4.09944 11.7524 4.06249 11.6916 4.03729C11.6309 4.01208 11.5658 3.99911 11.5 3.99911C11.4342 3.99911 11.3691 4.01208 11.3084 4.03729C11.2476 4.06249 11.1924 4.09944 11.146 4.146V4.146Z" fill="#F5F5F5"/>
</svg>
