<svg width="16" height="16" viewBox="0 0 16 16" fill="none" xmlns="http://www.w3.org/2000/svg">
<path d="M10.97 4.97C11.1109 4.83589 11.2983 4.76175 11.4928 4.76322C11.6873 4.76469 11.8736 4.84166 12.0125 4.97789C12.1513 5.11411 12.2317 5.29894 12.2369 5.49337C12.242 5.6878 12.1714 5.87663 12.04 6.02L8.05001 11.01C7.9814 11.0839 7.89859 11.1432 7.80654 11.1844C7.71448 11.2255 7.61508 11.2477 7.51426 11.2496C7.41344 11.2514 7.31328 11.233 7.21976 11.1952C7.12625 11.1575 7.0413 11.1013 6.97001 11.03L4.32401 8.384C4.25032 8.31534 4.19122 8.23254 4.15022 8.14054C4.10923 8.04854 4.08719 7.94923 4.08541 7.84852C4.08364 7.74782 4.10216 7.64779 4.13988 7.5544C4.1776 7.46101 4.23375 7.37618 4.30497 7.30496C4.37619 7.23374 4.46102 7.1776 4.55441 7.13988C4.6478 7.10216 4.74782 7.08363 4.84853 7.08541C4.94923 7.08718 5.04854 7.10923 5.14054 7.15022C5.23254 7.19121 5.31534 7.25031 5.384 7.324L7.47801 9.417L10.951 4.992C10.9573 4.9843 10.9639 4.97696 10.971 4.97H10.97Z" fill="#F5F5F5"/>
</svg>
