<svg width="16" height="16" viewBox="0 0 16 16" fill="none" xmlns="http://www.w3.org/2000/svg">
<path fill-rule="evenodd" clip-rule="evenodd" d="M4.64599 1.646C4.69244 1.59944 4.74761 1.56249 4.80836 1.53729C4.8691 1.51208 4.93423 1.49911 4.99999 1.49911C5.06576 1.49911 5.13088 1.51208 5.19163 1.53729C5.25237 1.56249 5.30755 1.59944 5.35399 1.646L11.354 7.646C11.4006 7.69244 11.4375 7.74762 11.4627 7.80837C11.4879 7.86911 11.5009 7.93423 11.5009 8C11.5009 8.06577 11.4879 8.13089 11.4627 8.19163C11.4375 8.25238 11.4006 8.30755 11.354 8.354L5.35399 14.354C5.26011 14.4479 5.13277 14.5006 4.99999 14.5006C4.86722 14.5006 4.73988 14.4479 4.64599 14.354C4.55211 14.2601 4.49936 14.1328 4.49936 14C4.49936 13.8672 4.55211 13.7399 4.64599 13.646L10.293 8L4.64599 2.354C4.59943 2.30755 4.56249 2.25238 4.53728 2.19163C4.51207 2.13089 4.4991 2.06577 4.4991 2C4.4991 1.93423 4.51207 1.86911 4.53728 1.80837C4.56249 1.74762 4.59943 1.69244 4.64599 1.646V1.646Z" fill="#F5F5F5"/>
</svg>
