<svg width="16" height="16" viewBox="0 0 16 16" fill="none" xmlns="http://www.w3.org/2000/svg">
<path fill-rule="evenodd" clip-rule="evenodd" d="M11.354 1.646C11.4006 1.69244 11.4375 1.74762 11.4627 1.80837C11.4879 1.86911 11.5009 1.93423 11.5009 2C11.5009 2.06577 11.4879 2.13089 11.4627 2.19163C11.4375 2.25238 11.4006 2.30755 11.354 2.354L5.70699 8L11.354 13.646C11.4479 13.7399 11.5006 13.8672 11.5006 14C11.5006 14.1328 11.4479 14.2601 11.354 14.354C11.2601 14.4479 11.1328 14.5006 11 14.5006C10.8672 14.5006 10.7399 14.4479 10.646 14.354L4.64599 8.354C4.59943 8.30755 4.56249 8.25238 4.53728 8.19163C4.51207 8.13089 4.4991 8.06577 4.4991 8C4.4991 7.93423 4.51207 7.86911 4.53728 7.80837C4.56249 7.74762 4.59943 7.69244 4.64599 7.646L10.646 1.646C10.6924 1.59944 10.7476 1.56249 10.8084 1.53729C10.8691 1.51208 10.9342 1.49911 11 1.49911C11.0658 1.49911 11.1309 1.51208 11.1916 1.53729C11.2524 1.56249 11.3075 1.59944 11.354 1.646V1.646Z" fill="#F5F5F5"/>
</svg>
