<svg width="16" height="16" viewBox="0 0 16 16" fill="none" xmlns="http://www.w3.org/2000/svg">
<path d="M13.854 3.646C13.9006 3.69244 13.9375 3.74762 13.9627 3.80837C13.9879 3.86911 14.0009 3.93423 14.0009 4C14.0009 4.06577 13.9879 4.13089 13.9627 4.19163C13.9375 4.25238 13.9006 4.30755 13.854 4.354L6.854 11.354C6.80755 11.4006 6.75238 11.4375 6.69163 11.4627C6.63089 11.4879 6.56577 11.5009 6.5 11.5009C6.43423 11.5009 6.36911 11.4879 6.30836 11.4627C6.24762 11.4375 6.19244 11.4006 6.146 11.354L2.646 7.854C2.55211 7.76011 2.49937 7.63277 2.49937 7.5C2.49937 7.36722 2.55211 7.23989 2.646 7.146C2.73988 7.05211 2.86722 6.99937 3 6.99937C3.13277 6.99937 3.26011 7.05211 3.354 7.146L6.5 10.293L13.146 3.646C13.1924 3.59944 13.2476 3.56249 13.3084 3.53729C13.3691 3.51208 13.4342 3.49911 13.5 3.49911C13.5658 3.49911 13.6309 3.51208 13.6916 3.53729C13.7524 3.56249 13.8076 3.59944 13.854 3.646V3.646Z" fill="#F5F5F5"/>
</svg>
