<svg width="16" height="16" viewBox="0 0 16 16" fill="none" xmlns="http://www.w3.org/2000/svg">
<g clip-path="url(#clip0_4_9)">
<path d="M8 2.748L7.283 2.011C5.6 0.281001 2.514 0.878001 1.4 3.053C0.877002 4.076 0.759002 5.553 1.714 7.438C2.634 9.253 4.548 11.427 8 13.795C11.452 11.427 13.365 9.253 14.286 7.438C15.241 5.552 15.124 4.076 14.6 3.053C13.486 0.878001 10.4 0.280001 8.717 2.01L8 2.748ZM8 15C-7.333 4.868 3.279 -3.04 7.824 1.143C7.884 1.198 7.943 1.255 8 1.314C8.05642 1.25505 8.11513 1.19834 8.176 1.144C12.72 -3.042 23.333 4.867 8 15Z" fill="#F5F5F5"/>
</g>
<defs>
<clipPath id="clip0_4_9">
<rect width="16" height="16" fill="white"/>
</clipPath>
</defs>
</svg>
