<svg width="16" height="16" viewBox="0 0 16 16" fill="none" xmlns="http://www.w3.org/2000/svg">
<path d="M13.498 0.795001L13.647 0.646001C13.7591 0.533918 13.8923 0.445021 14.0388 0.384387C14.1853 0.323753 14.3423 0.29257 14.5009 0.292616C14.6594 0.292662 14.8164 0.323938 14.9629 0.384658C15.1093 0.445378 15.2424 0.534352 15.3545 0.646501C15.4666 0.75865 15.5555 0.891777 15.6161 1.03828C15.6767 1.18479 15.7079 1.3418 15.7079 1.50035C15.7078 1.65891 15.6766 1.8159 15.6158 1.96237C15.5551 2.10884 15.4661 2.24192 15.354 2.354L15.205 2.502C15.4599 2.78786 15.5958 3.16039 15.5848 3.54323C15.5738 3.92606 15.4168 4.2902 15.146 4.561L4.854 14.854C4.78966 14.918 4.70911 14.9633 4.621 14.985L0.620999 15.985C0.537292 16.0058 0.449615 16.0047 0.366492 15.9816C0.283369 15.9585 0.207627 15.9144 0.14663 15.8534C0.085632 15.7924 0.0414533 15.7166 0.0183878 15.6335C-0.00467757 15.5504 -0.00584496 15.4627 0.0149991 15.379L1.015 11.379C1.03688 11.2912 1.08215 11.2111 1.146 11.147L10.788 1.505C10.6916 1.43713 10.5742 1.40553 10.4568 1.41577C10.3393 1.42602 10.2292 1.47746 10.146 1.561L6.854 4.854C6.80751 4.90049 6.75232 4.93737 6.69158 4.96252C6.63084 4.98768 6.56574 5.00063 6.5 5.00063C6.43426 5.00063 6.36915 4.98768 6.30842 4.96252C6.24768 4.93737 6.19249 4.90049 6.146 4.854C6.09951 4.80751 6.06263 4.75232 6.03748 4.69158C6.01232 4.63085 5.99937 4.56574 5.99937 4.5C5.99937 4.43426 6.01232 4.36916 6.03748 4.30842C6.06263 4.24768 6.09951 4.19249 6.146 4.146L9.44 0.854001C9.71097 0.583016 10.0754 0.426022 10.4585 0.415236C10.8415 0.404451 11.2142 0.540692 11.5 0.796001C11.7748 0.55044 12.1303 0.414613 12.4988 0.414428C12.8673 0.414244 13.223 0.549715 13.498 0.795001V0.795001ZM12.854 1.561C12.7602 1.46727 12.6331 1.41461 12.5005 1.41461C12.3679 1.41461 12.2408 1.46727 12.147 1.561L1.95 11.756L1.186 14.813L4.243 14.049L14.44 3.854C14.4866 3.80756 14.5235 3.75238 14.5487 3.69163C14.5739 3.63089 14.5869 3.56577 14.5869 3.5C14.5869 3.43423 14.5739 3.36911 14.5487 3.30837C14.5235 3.24762 14.4866 3.19245 14.44 3.146L12.855 1.561H12.854Z" fill="#F5F5F5"/>
</svg>
