<svg width="16" height="16" viewBox="0 0 16 16" fill="none" xmlns="http://www.w3.org/2000/svg">
<g clip-path="url(#clip0_4_87)">
<path d="M13.5 1C13.1022 1 12.7206 1.15804 12.4393 1.43934C12.158 1.72065 12 2.10218 12 2.5C12 2.89783 12.158 3.27936 12.4393 3.56066C12.7206 3.84197 13.1022 4 13.5 4C13.8978 4 14.2794 3.84197 14.5607 3.56066C14.842 3.27936 15 2.89783 15 2.5C15 2.10218 14.842 1.72065 14.5607 1.43934C14.2794 1.15804 13.8978 1 13.5 1ZM11 2.5C10.9999 1.91343 11.2061 1.34552 11.5825 0.895612C11.9588 0.445708 12.4814 0.142465 13.0588 0.0389383C13.6361 -0.0645881 14.2315 0.0381946 14.7407 0.329304C15.25 0.620413 15.6406 1.08131 15.8444 1.63136C16.0481 2.18141 16.0519 2.78558 15.8552 3.33817C15.6585 3.89077 15.2737 4.35659 14.7682 4.65414C14.2627 4.9517 13.6687 5.06204 13.0901 4.96585C12.5114 4.86967 11.985 4.57309 11.603 4.128L4.885 7.248C5.03944 7.73744 5.03944 8.26256 4.885 8.752L11.603 11.872C12.0068 11.4023 12.5707 11.0993 13.1852 11.0217C13.7997 10.944 14.4212 11.0972 14.9292 11.4517C15.4372 11.8061 15.7955 12.3366 15.9347 12.9401C16.0739 13.5437 15.984 14.1775 15.6826 14.7186C15.3811 15.2597 14.8895 15.6696 14.3031 15.869C13.7166 16.0683 13.077 16.0428 12.5083 15.7974C11.9395 15.552 11.4821 15.1043 11.2247 14.5409C10.9673 13.9775 10.9282 13.3386 11.115 12.748L4.397 9.628C4.06443 10.0156 3.62115 10.292 3.12678 10.4201C2.63241 10.5482 2.11066 10.5218 1.63174 10.3445C1.15281 10.1672 0.739674 9.84743 0.447906 9.42829C0.156137 9.00914 -0.000267029 8.5107 -0.000267029 8C-0.000267029 7.4893 0.156137 6.99086 0.447906 6.57171C0.739674 6.15257 1.15281 5.83284 1.63174 5.65552C2.11066 5.47821 2.63241 5.45182 3.12678 5.57992C3.62115 5.70801 4.06443 5.98443 4.397 6.372L11.115 3.252C11.0385 3.00867 10.9997 2.75507 11 2.5V2.5ZM2.5 6.5C2.10217 6.5 1.72064 6.65804 1.43934 6.93934C1.15803 7.22065 0.999998 7.60218 0.999998 8C0.999998 8.39783 1.15803 8.77936 1.43934 9.06066C1.72064 9.34197 2.10217 9.5 2.5 9.5C2.89782 9.5 3.27935 9.34197 3.56066 9.06066C3.84196 8.77936 4 8.39783 4 8C4 7.60218 3.84196 7.22065 3.56066 6.93934C3.27935 6.65804 2.89782 6.5 2.5 6.5ZM13.5 12C13.1022 12 12.7206 12.158 12.4393 12.4393C12.158 12.7206 12 13.1022 12 13.5C12 13.8978 12.158 14.2794 12.4393 14.5607C12.7206 14.842 13.1022 15 13.5 15C13.8978 15 14.2794 14.842 14.5607 14.5607C14.842 14.2794 15 13.8978 15 13.5C15 13.1022 14.842 12.7206 14.5607 12.4393C14.2794 12.158 13.8978 12 13.5 12Z" fill="#F5F5F5"/>
</g>
<defs>
<clipPath id="clip0_4_87">
<rect width="16" height="16" fill="white"/>
</clipPath>
</defs>
</svg>
