<svg width="16" height="16" viewBox="0 0 16 16" fill="none" xmlns="http://www.w3.org/2000/svg">
<g clip-path="url(#clip0_4_79)">
<path d="M15.854 0.146001C15.9232 0.215333 15.9706 0.303475 15.9901 0.399478C16.0097 0.495481 16.0006 0.595114 15.964 0.686001L10.145 15.233C10.0937 15.3611 10.0081 15.4726 9.89753 15.5552C9.78698 15.6377 9.65578 15.6882 9.51838 15.701C9.38099 15.7139 9.24272 15.6885 9.1188 15.6278C8.99487 15.5671 8.8901 15.4734 8.816 15.357L5.638 10.362L0.643 7.184C0.526318 7.10998 0.432352 7.00517 0.37147 6.88113C0.310588 6.75709 0.285158 6.61864 0.297985 6.48105C0.310812 6.34347 0.361398 6.21211 0.444161 6.10146C0.526924 5.99081 0.638647 5.90517 0.767 5.854L15.314 0.037001C15.4049 0.000413254 15.5045 -0.00866647 15.6005 0.0108897C15.6965 0.0304459 15.7847 0.0777761 15.854 0.147001V0.146001ZM6.636 10.07L9.397 14.408L14.13 2.576L6.636 10.07ZM13.423 1.869L1.591 6.602L5.93 9.362L13.424 1.869H13.423Z" fill="#F5F5F5"/>
</g>
<defs>
<clipPath id="clip0_4_79">
<rect width="16" height="16" fill="white"/>
</clipPath>
</defs>
</svg>
