<svg width="16" height="16" viewBox="0 0 16 16" fill="none" xmlns="http://www.w3.org/2000/svg">
<path d="M5.338 1.59C4.38559 1.85248 3.43964 2.1379 2.501 2.446C2.41529 2.47376 2.3391 2.52504 2.28111 2.59399C2.22312 2.66295 2.18566 2.7468 2.173 2.836C1.619 6.993 2.899 10.026 4.426 12.024C5.07251 12.8784 5.8434 13.6311 6.713 14.257C7.059 14.501 7.365 14.677 7.606 14.79C7.726 14.847 7.824 14.885 7.899 14.908C7.9318 14.9195 7.96562 14.9279 8 14.933C8.03397 14.9275 8.06742 14.9191 8.1 14.908C8.176 14.885 8.274 14.847 8.394 14.79C8.634 14.677 8.941 14.5 9.287 14.257C10.1566 13.6311 10.9275 12.8784 11.574 12.024C13.101 10.027 14.381 6.993 13.827 2.836C13.8144 2.74676 13.777 2.66285 13.719 2.59388C13.661 2.52491 13.5848 2.47366 13.499 2.446C12.848 2.233 11.749 1.886 10.662 1.591C9.552 1.29 8.531 1.067 8 1.067C7.47 1.067 6.448 1.29 5.338 1.591V1.59ZM5.072 0.56C6.157 0.265 7.31 0 8 0C8.69 0 9.843 0.265 10.928 0.56C12.038 0.86 13.157 1.215 13.815 1.43C14.0901 1.52085 14.334 1.68747 14.5187 1.9107C14.7034 2.13394 14.8213 2.40474 14.859 2.692C15.455 7.169 14.072 10.487 12.394 12.682C11.6824 13.621 10.834 14.4479 9.877 15.135C9.54609 15.3728 9.19548 15.5819 8.829 15.76C8.549 15.892 8.248 16 8 16C7.752 16 7.452 15.892 7.171 15.76C6.80451 15.5819 6.4539 15.3728 6.123 15.135C5.16603 14.4478 4.31758 13.621 3.606 12.682C1.928 10.487 0.544998 7.169 1.141 2.692C1.17869 2.40474 1.29664 2.13394 1.48131 1.9107C1.66599 1.68747 1.90989 1.52085 2.185 1.43C3.14019 1.11681 4.1028 0.826725 5.072 0.56V0.56Z" fill="#F5F5F5"/>
<path d="M10.854 5.146C10.9006 5.19245 10.9375 5.24762 10.9627 5.30837C10.9879 5.36911 11.0009 5.43423 11.0009 5.5C11.0009 5.56577 10.9879 5.63089 10.9627 5.69163C10.9375 5.75238 10.9006 5.80756 10.854 5.854L7.854 8.854C7.80755 8.90056 7.75238 8.93751 7.69163 8.96271C7.63089 8.98792 7.56577 9.00089 7.5 9.00089C7.43423 9.00089 7.36911 8.98792 7.30836 8.96271C7.24762 8.93751 7.19244 8.90056 7.146 8.854L5.646 7.354C5.59951 7.30751 5.56263 7.25232 5.53748 7.19158C5.51232 7.13085 5.49937 7.06574 5.49937 7C5.49937 6.93426 5.51232 6.86916 5.53748 6.80842C5.56263 6.74768 5.59951 6.69249 5.646 6.646C5.69249 6.59951 5.74768 6.56264 5.80841 6.53748C5.86915 6.51232 5.93425 6.49937 6 6.49937C6.06574 6.49937 6.13084 6.51232 6.19158 6.53748C6.25232 6.56264 6.30751 6.59951 6.354 6.646L7.5 7.793L10.146 5.146C10.1924 5.09944 10.2476 5.06249 10.3084 5.03729C10.3691 5.01208 10.4342 4.99911 10.5 4.99911C10.5658 4.99911 10.6309 5.01208 10.6916 5.03729C10.7524 5.06249 10.8076 5.09944 10.854 5.146V5.146Z" fill="#F5F5F5"/>
</svg>
