<svg width="16" height="16" viewBox="0 0 16 16" fill="none" xmlns="http://www.w3.org/2000/svg">
<path fill-rule="evenodd" clip-rule="evenodd" d="M13.854 2.146C13.9006 2.19245 13.9375 2.24762 13.9627 2.30837C13.9879 2.36911 14.0009 2.43423 14.0009 2.5C14.0009 2.56577 13.9879 2.63089 13.9627 2.69163C13.9375 2.75238 13.9006 2.80756 13.854 2.854L2.85399 13.854C2.7601 13.9479 2.63277 14.0006 2.49999 14.0006C2.36721 14.0006 2.23988 13.9479 2.14599 13.854C2.0521 13.7601 1.99936 13.6328 1.99936 13.5C1.99936 13.3672 2.0521 13.2399 2.14599 13.146L13.146 2.146C13.1924 2.09944 13.2476 2.0625 13.3084 2.03729C13.3691 2.01208 13.4342 1.99911 13.5 1.99911C13.5658 1.99911 13.6309 2.01208 13.6916 2.03729C13.7524 2.0625 13.8075 2.09944 13.854 2.146V2.146Z" fill="#F5F5F5"/>
<path fill-rule="evenodd" clip-rule="evenodd" d="M2.14599 2.146C2.09943 2.19245 2.06249 2.24762 2.03728 2.30837C2.01207 2.36911 1.9991 2.43423 1.9991 2.5C1.9991 2.56577 2.01207 2.63089 2.03728 2.69163C2.06249 2.75238 2.09943 2.80756 2.14599 2.854L13.146 13.854C13.2399 13.9479 13.3672 14.0006 13.5 14.0006C13.6328 14.0006 13.7601 13.9479 13.854 13.854C13.9479 13.7601 14.0006 13.6328 14.0006 13.5C14.0006 13.3672 13.9479 13.2399 13.854 13.146L2.85399 2.146C2.80755 2.09944 2.75237 2.0625 2.69163 2.03729C2.63088 2.01208 2.56576 1.99911 2.49999 1.99911C2.43423 1.99911 2.36911 2.01208 2.30836 2.03729C2.24761 2.0625 2.19244 2.09944 2.14599 2.146V2.146Z" fill="#F5F5F5"/>
</svg>
